<svg xmlns="http://www.w3.org/2000/svg" width="365" height="365" viewBox="0 0 365 365"><g transform="translate(-141 -193)"><circle cx="182.5" cy="182.5" r="182.5" transform="translate(141 193)" fill="#d02b3b"/><g transform="translate(-84.571 -435.157)"><g transform="translate(294.359 660.707)"><g transform="translate(0 0)"><path d="M122912.172,13629.979c-32.922,5.488-68.031-2.814-88.2-13.473a99.1,99.1,0,0,1-24.937-19.07c-.922-.955-1.844-1.951-2.75-2.936a6.366,6.366,0,0,0-4.7-2.062,6.435,6.435,0,0,0-6.406,6.4,6.319,6.319,0,0,0,1.609,4.227c.969,1.107,2.016,2.2,3,3.26a112.418,112.418,0,0,0,28.2,21.5c17.25,9.119,44.469,16.668,72.656,16.668a143.9,143.9,0,0,0,23.625-1.889,6.4,6.4,0,0,0-1.016-12.723,6.341,6.341,0,0,0-1.078.092Zm-31.125-219.371c-33.156,2.061-62.094,18.885-79.453,46.164-15.187,23.871-20.312,51.285-14.437,77.176a98.85,98.85,0,0,0,43.781,61.459c14.063,9.021,33.188,14.348,53.828,15.025q2.18.067,4.406.07a147.138,147.138,0,0,0,65-15.5,6.4,6.4,0,0,0-2.828-12.152,6.506,6.506,0,0,0-2.859.666c-43.562,21.545-87.891,15.68-110.656,1.105a86.161,86.161,0,0,1-38.187-53.512c-5.109-22.531-.547-46.488,12.781-67.471,20.7-32.551,52.375-39.184,69.422-40.252,26.281-1.637,51.563,7.361,64.438,22.939a74.784,74.784,0,0,1,16.094,60.512,70.306,70.306,0,0,1-32.969,48.65c-17.547,10.611-35.3,24.473-73.375,4.516-15.453-8.322-24.844-25.09-24.844-46.783,0-31.658,25.531-58.4,55.75-58.4,33,0,44.781,21.557,44.781,41.727,0,22.834-13.984,35-24.062,35-1.641,0-2.109-.559-2.281-.736-1.344-1.564-.578-6.521-.219-8.881l7.047-45.141a1.956,1.956,0,0,0-.531-1.627l-1.156-1.154a1.881,1.881,0,0,0-2.187-.361l-8.156,4.135a25.75,25.75,0,0,0-13.578-3.5c-20.906,0-37.75,25.256-37.75,46.17,0,14.779,6.672,23.619,17.891,23.619,7.688,0,16.359-6.684,22.531-14.771a15.73,15.73,0,0,0,2.8,9.861c2.469,3.25,6.422,4.908,11.7,4.908,23.047,0,41.8-22.531,41.8-50.232a51.185,51.185,0,0,0-14.219-35.871c-10.234-10.6-24.656-16.2-41.719-16.2-35.531,0-72.281,27.727-72.281,74.137a59.872,59.872,0,0,0,16.859,42.053,67.974,67.974,0,0,0,21.938,14.959c36.438,14.572,66.359,1.061,79.8-6.414a78.51,78.51,0,0,0,39.016-57.479c3.641-25.393-1-50.152-18.8-70.875C122940.406,13419.842,122911.281,13408.729,122881.047,13410.607Zm11.594,89.371c-2.672,18.438-15.266,29.711-21.219,29.711-2.984,0-6.2-.957-6.2-12.422,0-14.254,10.266-28.775,20.359-28.775a13.573,13.573,0,0,1,8.391,2.248Zm88.344-89.219c-22.125-25.869-63.391-40.086-105.062-36.207a135.848,135.848,0,0,0-56.469,17.984,126.214,126.214,0,0,0-45.25,46.191,6.624,6.624,0,1,0,11.484,6.605c26.016-45.158,68.469-55.467,91.453-57.6,36.953-3.432,74.656,9.279,93.781,31.643a101.257,101.257,0,0,1,23.516,68.016c0,.074-.016.15-.016.227a6.449,6.449,0,0,0,6.422,6.406h.2a6.54,6.54,0,0,0,6.641-6.27,114.535,114.535,0,0,0-26.7-76.984Zm-154.859-42.582c53.766-27.477,122.484-18.412,159.875,21.088a6.489,6.489,0,0,0,4.8,2.068,6.656,6.656,0,0,0,6.609-6.629,6.572,6.572,0,0,0-1.812-4.543c-19.828-20.953-48.437-34.979-80.531-39.5a161.134,161.134,0,0,0-94.969,15.715,6.625,6.625,0,0,0,6.031,11.8Z" transform="translate(-122773.313 -13339.102)" fill="#fff"/></g></g></g></g></svg>