<svg xmlns="http://www.w3.org/2000/svg" width="16" height="16" viewBox="0 0 16 16"><g transform="translate(-601 -193)"><g transform="translate(601 193)"><circle cx="8" cy="8" r="8" fill="none"/><g transform="translate(2.957 1.399)"><g transform="translate(0 0)"><g transform="translate(0 0)"><path d="M122779.281,13351.607a6.469,6.469,0,0,1-3.789-.579,4.286,4.286,0,0,1-1.07-.819c-.047-.042-.078-.084-.125-.127a.266.266,0,0,0-.2-.089.277.277,0,0,0-.273.275.262.262,0,0,0,.07.182c.047.048.086.095.133.141a4.769,4.769,0,0,0,1.211.925,7.084,7.084,0,0,0,3.125.716,6.246,6.246,0,0,0,1.016-.081.275.275,0,0,0-.047-.547.253.253,0,0,0-.047,0Zm-1.336-9.432a4.294,4.294,0,0,0-3.414,1.985,4.359,4.359,0,0,0-.625,3.317,4.264,4.264,0,0,0,1.883,2.643,4.639,4.639,0,0,0,2.32.646l.188,0a6.3,6.3,0,0,0,2.789-.667.275.275,0,0,0-.117-.522.268.268,0,0,0-.125.029,5.088,5.088,0,0,1-4.758.047,3.7,3.7,0,0,1-1.641-2.3,3.835,3.835,0,0,1,.547-2.9,3.745,3.745,0,0,1,2.984-1.73,3.391,3.391,0,0,1,2.773.986,3.224,3.224,0,0,1,.688,2.6,3,3,0,0,1-1.414,2.092,2.627,2.627,0,0,1-3.156.194,2.176,2.176,0,0,1-1.07-2.012,2.491,2.491,0,0,1,2.4-2.511,1.728,1.728,0,0,1,1.93,1.794c0,.981-.6,1.5-1.039,1.5-.07,0-.086-.024-.094-.032-.055-.067-.023-.28-.008-.382l.3-1.94a.064.064,0,0,0-.023-.07l-.047-.049a.08.08,0,0,0-.094-.016l-.352.178a1.076,1.076,0,0,0-.578-.15c-.906,0-1.625,1.086-1.625,1.984,0,.636.281,1.016.766,1.016a1.426,1.426,0,0,0,.969-.635.64.64,0,0,0,.125.424.584.584,0,0,0,.5.211,2,2,0,0,0,1.8-2.159,2.25,2.25,0,0,0-.609-1.542,2.421,2.421,0,0,0-1.8-.7,3.115,3.115,0,0,0-3.109,3.188,2.6,2.6,0,0,0,.727,1.809,2.93,2.93,0,0,0,.945.643,3.91,3.91,0,0,0,3.43-.275,3.387,3.387,0,0,0,1.68-2.472,3.7,3.7,0,0,0-.812-3.047A4,4,0,0,0,122777.945,13342.176Zm.5,3.843c-.117.793-.656,1.277-.914,1.277-.125,0-.266-.041-.266-.534,0-.612.438-1.237.875-1.237a.6.6,0,0,1,.359.1Zm3.8-3.836a5.394,5.394,0,0,0-4.516-1.557,5.832,5.832,0,0,0-2.43.773,5.373,5.373,0,0,0-1.945,1.985.306.306,0,0,0-.039.143.283.283,0,0,0,.281.285.276.276,0,0,0,.25-.144,4.958,4.958,0,0,1,3.93-2.476,4.9,4.9,0,0,1,4.039,1.359,4.38,4.38,0,0,1,1.008,2.925v.01a.277.277,0,0,0,.273.275h.008a.283.283,0,0,0,.289-.27,4.959,4.959,0,0,0-1.148-3.31Zm-6.664-1.831a5.988,5.988,0,0,1,6.875.907.292.292,0,0,0,.211.089.283.283,0,0,0,.281-.285.265.265,0,0,0-.078-.2,5.865,5.865,0,0,0-3.461-1.7,6.908,6.908,0,0,0-4.078.676.276.276,0,0,0-.156.254.283.283,0,0,0,.281.284.229.229,0,0,0,.125-.031Z" transform="translate(-122773.313 -13339.102)"/></g></g></g></g></g></svg>