<?xml version="1.0" encoding="UTF-8" standalone="no"?>
<!DOCTYPE svg PUBLIC "-//W3C//DTD SVG 1.1//EN" "http://www.w3.org/Graphics/SVG/1.1/DTD/svg11.dtd">
<svg width="100%" height="100%" viewBox="0 0 4312 4312" version="1.1" xmlns="http://www.w3.org/2000/svg" xmlns:xlink="http://www.w3.org/1999/xlink" xml:space="preserve" xmlns:serif="http://www.serif.com/" style="fill-rule:evenodd;clip-rule:evenodd;stroke-linejoin:round;stroke-miterlimit:2;">
    <g transform="matrix(1,0,0,1,-2171,-3244)">
        <g transform="matrix(16.8399,0,0,16.8399,56193.5,15217.2)">
            <g id="Group_1433">
                <g id="Rectangle_530" transform="matrix(1,0,0,1,-3208,-711)">
                    <rect x="0" y="0" width="256" height="256" style="fill:none;"/>
                </g>
                <g id="Group_25" transform="matrix(1,0,0,1,-10441,-1461.3)">
                    <g id="Path_35" transform="matrix(-3.82857e-16,-1,1,-3.82857e-16,7254.92,981.708)">
                        <path d="M103.705,207.41C46.814,207.41 0,160.596 0,103.705C0,46.814 46.814,0 103.705,0C160.596,0 207.41,46.814 207.41,103.705C207.41,103.707 207.41,103.708 207.41,103.71C207.41,160.598 160.598,207.41 103.71,207.41C103.708,207.41 103.707,207.41 103.705,207.41" style="fill:rgb(208,43,59);fill-rule:nonzero;"/>
                    </g>
                    <g id="Path_36" transform="matrix(1,0,0,1,3.114,1.35)">
                        <path d="M7367.49,953.146C7349.27,956.184 7329.83,951.587 7318.66,945.687C7313.53,942.923 7308.87,939.359 7304.86,935.129C7304.35,934.601 7303.84,934.05 7303.34,933.504C7302.67,932.777 7301.72,932.362 7300.73,932.362C7298.78,932.362 7297.18,933.963 7297.18,935.908C7297.18,936.769 7297.5,937.601 7298.07,938.248C7298.61,938.861 7299.19,939.466 7299.74,940.053C7304.28,944.824 7309.55,948.842 7315.35,951.958C7324.9,957.006 7339.97,961.185 7355.57,961.185C7359.96,961.197 7364.33,960.847 7368.65,960.139C7370.37,959.864 7371.64,958.373 7371.64,956.64C7371.64,954.696 7370.04,953.096 7368.09,953.096C7367.89,953.096 7367.69,953.113 7367.49,953.147L7367.49,953.146ZM7350.26,831.7C7331.91,832.84 7315.89,842.155 7306.28,857.256C7297.87,870.471 7295.03,885.649 7298.28,899.982C7301.54,914.079 7310.26,926.322 7322.52,934.006C7330.3,939 7340.89,941.949 7352.32,942.324C7353.12,942.35 7353.94,942.364 7354.76,942.364C7367.26,942.3 7379.57,939.364 7390.75,933.783C7391.96,933.185 7392.73,931.95 7392.73,930.604C7392.73,928.658 7391.12,927.056 7389.18,927.056C7388.63,927.056 7388.09,927.182 7387.6,927.425C7363.48,939.352 7338.94,936.105 7326.34,928.037C7315.65,921.349 7308.05,910.69 7305.19,898.412C7302.37,885.938 7304.89,872.675 7312.27,861.06C7323.73,843.038 7341.27,839.367 7350.7,838.775C7365.25,837.869 7379.25,842.851 7386.38,851.475C7394.1,860.795 7397.36,873.051 7395.28,884.975C7393.43,896.181 7386.76,906.033 7377.04,911.908C7367.32,917.783 7357.49,925.456 7336.41,914.408C7327.86,909.801 7322.66,900.518 7322.66,888.508C7322.66,870.982 7336.8,856.175 7353.52,856.175C7371.79,856.175 7378.32,868.109 7378.32,879.275C7378.32,891.917 7370.57,898.653 7364.99,898.653C7364.09,898.653 7363.83,898.344 7363.73,898.245C7362.99,897.379 7363.41,894.635 7363.61,893.329L7367.51,868.338C7367.56,868.009 7367.45,867.676 7367.22,867.438L7366.58,866.799C7366.26,866.476 7365.77,866.394 7365.36,866.599L7360.85,868.888C7358.57,867.559 7355.97,866.888 7353.33,866.951C7341.76,866.951 7332.43,880.933 7332.43,892.511C7332.43,900.693 7336.13,905.587 7342.34,905.587C7346.6,905.587 7351.4,901.887 7354.81,897.409C7354.7,899.35 7355.25,901.272 7356.36,902.868C7357.73,904.668 7359.92,905.586 7362.84,905.586C7375.6,905.586 7385.98,893.112 7385.98,877.777C7386.05,870.386 7383.22,863.255 7378.11,857.918C7372.44,852.051 7364.46,848.952 7355.01,848.952C7335.34,848.952 7314.99,864.302 7314.99,889.995C7314.93,898.676 7318.29,907.042 7324.33,913.276C7327.79,916.807 7331.92,919.622 7336.47,921.557C7356.64,929.625 7373.21,922.144 7380.65,918.006C7392.4,911.343 7400.4,899.566 7402.25,886.186C7404.26,872.128 7401.7,858.421 7391.84,846.949C7383.12,836.811 7367,830.659 7350.26,831.7ZM7356.68,881.176C7355.2,891.383 7348.23,897.624 7344.93,897.624C7343.28,897.624 7341.5,897.095 7341.5,890.748C7341.5,882.856 7347.18,874.818 7352.77,874.818C7354.42,874.714 7356.05,875.151 7357.42,876.062L7356.68,881.176ZM7405.59,831.784C7393.34,817.462 7370.5,809.592 7347.42,811.739C7336.39,812.717 7325.72,816.117 7316.16,821.696C7305.73,827.897 7297.1,836.712 7291.11,847.267C7290.79,847.823 7290.62,848.454 7290.62,849.096C7290.62,851.108 7292.28,852.763 7294.29,852.763C7295.6,852.763 7296.82,852.061 7297.47,850.925C7311.87,825.925 7335.37,820.217 7348.1,819.036C7368.56,817.136 7389.43,824.173 7400.02,836.554C7408.82,847.083 7413.46,860.489 7413.04,874.207C7413.04,874.249 7413.03,874.291 7413.03,874.333C7413.03,876.279 7414.64,877.88 7416.58,877.88C7416.59,877.88 7416.59,877.88 7416.6,877.88L7416.7,877.88C7418.66,877.918 7420.3,876.361 7420.37,874.409C7420.84,858.875 7415.57,843.701 7405.59,831.789L7405.59,831.784ZM7319.86,808.21C7349.62,792.999 7387.66,798.017 7408.36,819.884C7409.05,820.619 7410.01,821.035 7411.02,821.029C7413.03,821.027 7414.68,819.371 7414.68,817.36C7414.68,816.425 7414.32,815.525 7413.68,814.844C7402.7,803.244 7386.86,795.48 7369.09,792.978C7351.1,790.452 7332.75,793.488 7316.52,801.678C7315.3,802.303 7314.52,803.568 7314.52,804.944C7314.52,806.955 7316.18,808.61 7318.19,808.61C7318.77,808.61 7319.34,808.472 7319.86,808.209L7319.86,808.21Z" style="fill:white;fill-rule:nonzero;"/>
                    </g>
                </g>
            </g>
        </g>
    </g>
</svg>
